# xmcd CD database file
#
# Track frame offsets:
#	150
#	9837
#	34775
#	51740
#	70065
#	76872
#	89960
#	106190
#	127817
#	136845
#	138427
#	155502
#	158317
#	179575
#	198505
#	228272
#	247775
#	263397
#
# Disc length: 3554 seconds
#
# Revision: 4
# Processed by: cddbd v1.5PL3 Copyright (c) Steve Scherf et al.
# Submitted via: CDex 1.50beta9
#
DISCID=df0de012
DTITLE=エル・マロ - The Worst Universal Jet Set
DYEAR=1994
DGENRE=Rock
TTITLE0=Earth Landing Over Drive
TTITLE1=Blind
TTITLE2=Desert Tribe
TTITLE3=White Nite's Mood
TTITLE4=Mojo T. V.
TTITLE5=Mt. Phoenix
TTITLE6=朝と君と
TTITLE7=Mosquito
TTITLE8=Starchild Said
TTITLE9=Skull Troops
TTITLE10=We Wonｴt Be Wrong
TTITLE11=Cyborg Wagon
TTITLE12=Volunteered Jet Man (Disco)
TTITLE13=Dim
TTITLE14=Wild Wood Shed
TTITLE15=Tambourine Of Love
TTITLE16=Happy Goes Around
TTITLE17=Time Warp
EXTD=YEAR: 1994
EXTT0=
EXTT1=
EXTT2=
EXTT3=
EXTT4=
EXTT5=
EXTT6=
EXTT7=
EXTT8=
EXTT9=
EXTT10=
EXTT11=
EXTT12=
EXTT13=
EXTT14=
EXTT15=
EXTT16=
EXTT17=
PLAYORDER=
